<svg width="24" height="24" viewBox="0 0 24 24" fill="none" xmlns="http://www.w3.org/2000/svg">
<path fill-rule="evenodd" clip-rule="evenodd" d="M21.6466 19.1386C23.1255 17.1437 24 14.674 24 12C24 5.37253 18.6273 0 12 0C5.37253 0 0 5.37253 0 12C0 18.6273 5.37253 24 12 24C15.4771 24 18.6087 22.5212 20.8005 20.1581C21.1006 19.8343 21.3833 19.494 21.6466 19.1386ZM20.9813 18C22.13 16.2839 22.7999 14.2201 22.7999 12C22.7999 6.03533 17.9647 1.19997 11.9999 1.19997C6.03533 1.19997 1.19997 6.03533 1.19997 12C1.19997 14.2203 1.86986 16.2839 3.01868 18C4.46799 15.8348 6.67951 14.2229 9.26941 13.5482C8.01891 12.6817 7.19997 11.2365 7.19997 9.59992C7.19997 6.94899 9.34906 4.7999 12 4.7999C14.6509 4.7999 16.8 6.94899 16.8 9.59992C16.8 11.2364 15.981 12.6817 14.7306 13.5481C17.3204 14.2229 19.532 15.8347 20.9813 18ZM20.2084 19.019C18.5243 16.2497 15.4782 14.3999 12.0001 14.3999C8.5219 14.3999 5.47574 16.2497 3.79165 19.0191C5.77244 21.3334 8.71488 22.8 12 22.8C15.2851 22.8 18.2276 21.3332 20.2084 19.019ZM12 13.2C13.9883 13.2 15.6 11.5883 15.6 9.59992C15.6 7.61166 13.9884 5.99987 12 5.99987C10.0116 5.99987 8.39995 7.61178 8.39995 9.60005C8.39995 11.5883 10.0117 13.2 12 13.2Z" fill="#333333"/>
</svg>
